<svg width="109" height="110" viewBox="0 0 109 110" fill="none" xmlns="http://www.w3.org/2000/svg">
<path d="M32.8254 55.2918L32.8254 39.6166L-4.91181e-07 72.4978L7.75513 80.4273L32.8254 55.2918ZM107.623 45.4948C105.191 33.1873 95.9983 24.0027 94.9428 22.977L72.3811 -3.47656e-07L59.4865 12.9198L58.5687 13.8383L58.5687 29.5135L72.3199 15.7517L85.1533 28.8093L87.1112 30.7993L87.2489 30.9371C87.2795 30.9677 88.1055 31.779 89.2833 33.1873C91.7 36.0805 95.5393 41.4689 96.763 47.6532C98.5985 56.8992 99.5163 67.6606 89.2833 80.7947L89.2833 96.9903C90.2469 96.1484 90.8588 95.5514 91.0729 95.3371C100.22 86.3361 105.742 77.2432 107.929 67.5228C109.841 59.0882 108.847 51.6486 107.623 45.4948ZM39.2956 93.8675L38.9438 93.6992L38.7756 93.6532C38.5309 93.5308 37.6131 93.0562 35.9305 91.8316C35.0892 91.2193 34.0644 90.4386 32.8407 89.413C30.9746 87.8669 28.6496 85.785 25.8198 83.0296L19.4719 76.5391L11.6403 84.3767L17.9423 90.8213L18.0341 90.9131C27.793 100.465 32.8254 103.19 34.6609 103.955C41.3606 107.17 47.6473 108.701 53.3833 109.129C56.5649 109.374 59.563 109.282 62.3774 108.961C62.6222 108.93 62.8516 108.9 63.0964 108.869L63.0964 97.6333C56.3814 98.7813 48.305 98.2456 39.2956 93.8675Z" fill="#9EE7E5"/>
<path d="M53.0188 19.3758L53.0188 86.2863L38.3499 86.2863L38.3499 34.0713L39.8336 32.5864L40.6137 31.8057L45.0496 27.3665L48.0476 24.3508L49.0266 23.3711L52.0399 20.3708L53.0188 19.3758Z" fill="#9EE7E5"/>
<path d="M83.7545 34.3411L83.7545 101.114C83.6933 101.16 83.6322 101.206 83.5557 101.236C82.8827 101.665 82.1637 102.109 81.4142 102.553C81.1695 102.69 80.9095 102.844 80.6494 102.981C79.9611 103.364 79.2575 103.731 78.5233 104.099C77.835 104.436 77.1313 104.772 76.3971 105.094C75.9994 105.262 75.6017 105.446 75.1888 105.614C74.6534 105.829 74.1027 106.043 73.5367 106.257C73.0932 106.426 72.6496 106.579 72.1907 106.732C71.2882 107.038 70.3399 107.329 69.3456 107.589C69.1162 107.65 68.8714 107.711 68.6267 107.773L68.6267 34.3411L83.7545 34.3411Z" fill="#9EE7E5"/>
<path d="M68.6106 51.9614L53.0239 51.9614L53.0239 67.1161L68.6106 67.1161L68.6106 51.9614Z" fill="#9EE7E5"/>
</svg>
